<svg viewBox="0 0 24 24" aria-hidden="true" focusable="false" role="img" xmlns="http://www.w3.org/2000/svg"><g><path d="M11.993 3.516c.83 0 1.507.674 1.507 1.503 0 .82-.676 1.49-1.507 1.49-.823 0-1.493-.67-1.493-1.49 0-.83.67-1.504 1.493-1.504m0-1.496C10.345 2.02 9 3.36 9 5.02c0 1.643 1.345 2.985 2.993 2.985C13.655 8.005 15 6.663 15 5.02c0-1.66-1.345-3-3.007-3zm0 15.511c.83 0 1.507.675 1.507 1.504 0 .82-.676 1.49-1.507 1.49-.823 0-1.493-.668-1.493-1.49 0-.83.67-1.503 1.493-1.503m0-1.495c-1.648 0-2.993 1.34-2.993 3 0 1.643 1.345 2.985 2.993 2.985 1.662 0 3.007-1.342 3.007-2.986 0-1.658-1.345-3-3.007-3zm6.997-6.53c1.384 0 2.51 1.123 2.51 2.503 0 1.37-1.125 2.484-2.51 2.484-1.373 0-2.49-1.115-2.49-2.485 0-1.38 1.118-2.504 2.49-2.504m0-1.496c-2.197 0-3.99 1.79-3.99 4 0 2.19 1.793 3.98 3.99 3.98 2.216 0 4.01-1.79 4.01-3.98 0-2.21-1.793-4-4.01-4zm-14 1.538c1.384 0 2.51 1.123 2.51 2.503 0 1.37-1.125 2.484-2.51 2.484-1.373 0-2.49-1.115-2.49-2.485 0-1.382 1.118-2.504 2.49-2.504m0-1.497c-2.196.003-3.99 1.79-3.99 4 0 2.192 1.793 3.98 3.99 3.98C7.208 16.03 9 14.242 9 12.05c0-2.21-1.793-4-4.01-4z"></path></g></svg>